<?xml version="1.0" encoding="UTF-8"?>
<svg id="Capa_2" data-name="Capa 2" xmlns="http://www.w3.org/2000/svg" viewBox="0 0 229.63 35.95">
  <defs>
    <style>
      .cls-1 {
        fill: #545454;
      }

      .cls-2 {
        fill: #2fa6c7;
      }
    </style>
  </defs>
  <g id="Capa_1-2" data-name="Capa 1">
    <g>
      <path class="cls-1" d="M5.45,5.97v9.29h13.15v5.43H5.45v14.72H0V.54h20.69v5.43H5.45Z"/>
      <path class="cls-1" d="M43.67,35.37l-9.35-13.45h-4.27v13.45h-5.45l-.02-34.74h10.8c6.47,0,11.77,4.98,11.77,11.16,0,4.48-2.89,8.38-6.87,9.68l10.11,13.9h-6.7ZM35.5,17.39c3.28.02,6.01-2.63,6.01-5.73s-2.78-5.62-6.01-5.62h-5.47v11.36h5.47Z"/>
      <path class="cls-1" d="M59.05,5.99v8.9h13.15v5.43h-13.15v9.61h15.24v5.43h-20.69V.62h20.69v5.37h-15.24Z"/>
      <path class="cls-1" d="M77.5,29.27l4.31-3.08c1.55,2.72,4.44,4.27,7.78,4.27,3.9,0,6.85-1.87,6.85-4.53,0-3.21-4.57-5.15-8.62-6.9-4.07-1.81-8.6-3.92-8.6-9.37S84.16,0,90.41,0c4.96,0,8.66,2.39,10.09,6.21l-4.05,2.8c-1.08-2.35-3.47-3.66-5.99-3.66-3.19,0-5.73,1.98-5.73,4.44,0,2.72,3.21,3.69,7.44,5.5,5.5,2.41,9.76,5.06,9.76,10.54,0,6.16-5.34,10.13-12.39,10.13-5.71,0-10.04-2.67-12.03-6.68Z"/>
      <path class="cls-1" d="M132.08.62v34.74h-5.45v-14.68h-15.04v14.68h-5.43V.62h5.43v14.65h15.04V.62h5.45Z"/>
      <path class="cls-1" d="M159.26,29.93v5.43h-20.95V.62h5.45v29.31h15.5Z"/>
      <path class="cls-1" d="M168.62,3.79V.62h-5.45v8.62c1.82-1.82,3.63-3.63,5.45-5.45Z"/>
      <path class="cls-2" d="M163.17,12.93v22.43h5.45V7.48s-3.94,3.94-5.45,5.45Z"/>
      <path class="cls-2" d="M202.66,18.04c0,10.67-6.87,17.33-17.91,17.33h-9.89V.62h9.89c11.03-.02,17.91,6.66,17.91,17.41ZM197.14,18.02c0-7.37-4.78-11.98-12.41-11.98h-4.44v23.9h4.5c7.59,0,12.35-4.59,12.35-11.92Z"/>
      <path class="cls-2" d="M205.21,29.27l4.31-3.08c1.55,2.72,4.44,4.27,7.78,4.27,3.9,0,6.85-1.87,6.85-4.53,0-3.21-4.57-5.15-8.62-6.9-4.07-1.81-8.6-3.92-8.6-9.37s4.94-9.65,11.18-9.65c4.96,0,8.66,2.39,10.09,6.21l-4.05,2.8c-1.08-2.35-3.47-3.66-5.99-3.66-3.19,0-5.73,1.98-5.73,4.44,0,2.72,3.21,3.69,7.44,5.5,5.5,2.41,9.76,5.06,9.76,10.54,0,6.16-5.34,10.13-12.39,10.13-5.71,0-10.04-2.67-12.03-6.68Z"/>
    </g>
  </g>
</svg>